<svg style="display: none;"><defs> <path id="grid-SVGID_1_" d="M1,0C0.4,0,0,0.5,0,1v2.4c0,0.6,0.5,1,1,1h2.4c0.6,0,1-0.5,1-1V1c0-0.6-0.5-1-1-1H1z"/>  <ellipse id="list-SVGID_1_" cx="1.9" cy="1.8" rx="1.9" ry="1.8"/>  <path id="playlist-SVGID_1_" d="M18.6,0h-0.2h-1.6h-0.5v14.3c-0.8-0.3-1.8-0.5-2.8-0.2c-2.3,0.5-3.9,2.4-3.5,4.2c0.4,1.9,2.5,3,4.8,2.5
					c2-0.4,3.4-1.8,3.5-3.4h0V5.8c3,0.5,3.5,2.9,3.1,3.9c-0.1,0.4,0.1,0.7,0.6,0C25.5,4.9,18.2,3.2,18.6,0z"/>  <path id="queue-SVGID_1_" d="M4.2,1.9C4.3,2,4.5,2.1,4.7,2.1h17.2c0.2,0,0.4-0.1,0.6-0.2c0.2-0.1,0.2-0.2,0.2-0.3v-1
					c0-0.1-0.1-0.2-0.2-0.3c-0.2-0.1-0.4-0.2-0.6-0.2H4.7c-0.2,0-0.4,0.1-0.5,0.2C4,0.4,3.9,0.5,3.9,0.6v1C3.9,1.7,4,1.8,4.2,1.9z
					 M4.2,5.9C4.3,6,4.5,6,4.7,6h17.2c0.2,0,0.4-0.1,0.6-0.2c0.2-0.1,0.2-0.2,0.2-0.3v-1c0-0.1-0.1-0.2-0.2-0.3
					C22.3,4.1,22.1,4,21.9,4H4.7C4.5,4,4.3,4.1,4.2,4.2C4,4.3,3.9,4.4,3.9,4.5v1C3.9,5.7,4,5.8,4.2,5.9z M4.2,9.8
					c0.2,0.1,0.3,0.2,0.5,0.2h17.2c0.2,0,0.4-0.1,0.6-0.2c0.2-0.1,0.2-0.2,0.2-0.3v-1c0-0.1-0.1-0.2-0.2-0.3C22.3,8,22.1,8,21.9,8
					H4.7C4.5,8,4.3,8,4.2,8.1C4,8.2,3.9,8.3,3.9,8.5v1C3.9,9.6,4,9.7,4.2,9.8z"/>  <path id="volume-hi-SVGID_1_" d="M18.1,23.1c0.1,0.1,0.3,0.2,0.5,0.2c0.1,0,0.2,0,0.3-0.1c1.6-0.7,2.9-1.8,3.9-3.3c1-1.5,1.5-3.1,1.5-4.9
				s-0.5-3.4-1.5-4.9c-1-1.5-2.3-2.6-3.9-3.3c-0.1,0-0.2-0.1-0.3-0.1c-0.2,0-0.4,0.1-0.5,0.2c-0.1,0.1-0.2,0.3-0.2,0.5
				c0,0.3,0.1,0.5,0.5,0.7c0,0,0.1,0.1,0.3,0.1c0.1,0,0.2,0.1,0.3,0.1c0.4,0.2,0.7,0.4,1,0.6c0.9,0.7,1.7,1.6,2.2,2.7
				c0.5,1,0.8,2.2,0.8,3.4c0,1.2-0.3,2.3-0.8,3.4c-0.5,1.1-1.3,1.9-2.2,2.7c-0.3,0.2-0.6,0.4-1,0.6c-0.1,0-0.1,0.1-0.3,0.1
				c-0.1,0.1-0.2,0.1-0.3,0.1c-0.3,0.2-0.5,0.4-0.5,0.7C17.9,22.7,18,22.9,18.1,23.1z M16.9,20.3c0.1,0.1,0.3,0.2,0.5,0.2
				c0.1,0,0.2,0,0.3-0.1c1.1-0.5,2-1.2,2.6-2.2c0.6-1,1-2.1,1-3.3c0-1.2-0.3-2.3-1-3.3c-0.7-1-1.5-1.7-2.6-2.2
				c-0.1,0-0.2-0.1-0.3-0.1c-0.2,0-0.4,0.1-0.5,0.2c-0.1,0.1-0.2,0.3-0.2,0.5c0,0.3,0.1,0.5,0.5,0.7c0.4,0.2,0.7,0.4,0.9,0.5
				c0.6,0.4,1,1,1.4,1.6c0.3,0.6,0.5,1.3,0.5,2s-0.2,1.4-0.5,2c-0.3,0.6-0.8,1.1-1.4,1.6c-0.1,0.1-0.4,0.3-0.9,0.5
				c-0.3,0.2-0.5,0.4-0.5,0.7C16.7,20,16.8,20.2,16.9,20.3z M15.8,17.6c0.1,0.1,0.3,0.2,0.5,0.2c0.1,0,0.2,0,0.3-0.1
				c0.5-0.2,1-0.6,1.3-1.1c0.3-0.5,0.5-1.1,0.5-1.6c0-0.6-0.2-1.1-0.5-1.6c-0.3-0.5-0.8-0.9-1.3-1.1c-0.1,0-0.2-0.1-0.3-0.1
				c-0.2,0-0.4,0.1-0.5,0.2c-0.1,0.1-0.2,0.3-0.2,0.5c0,0.2,0,0.3,0.1,0.4c0.1,0.1,0.2,0.2,0.3,0.3c0.1,0.1,0.3,0.2,0.4,0.3
				c0.1,0.1,0.3,0.3,0.3,0.4c0.1,0.2,0.1,0.4,0.1,0.7c0,0.3,0,0.5-0.1,0.7c-0.1,0.2-0.2,0.3-0.3,0.4c-0.1,0.1-0.3,0.2-0.4,0.3
				c-0.1,0.1-0.3,0.2-0.3,0.3c-0.1,0.1-0.1,0.3-0.1,0.4C15.5,17.3,15.6,17.4,15.8,17.6z M5.2,17.8C5.4,17.9,5.5,18,5.7,18h3l3.9,3.9
				c0.1,0.1,0.3,0.2,0.5,0.2c0.2,0,0.4-0.1,0.5-0.2c0.1-0.1,0.2-0.3,0.2-0.5V8.7c0-0.2-0.1-0.4-0.2-0.5c-0.1-0.1-0.3-0.2-0.5-0.2
				c-0.2,0-0.4,0.1-0.5,0.2L8.8,12h-3c-0.2,0-0.4,0.1-0.5,0.2C5.1,12.4,5,12.6,5,12.8v4.5C5,17.4,5.1,17.6,5.2,17.8z"/>  <path id="volume-lo-SVGID_1_" d="M15.8,17.6c0.1,0.1,0.3,0.2,0.5,0.2c0.1,0,0.2,0,0.3-0.1c0.5-0.2,1-0.6,1.3-1.1c0.3-0.5,0.5-1.1,0.5-1.6
				c0-0.6-0.2-1.1-0.5-1.6c-0.3-0.5-0.8-0.9-1.3-1.1c-0.1,0-0.2-0.1-0.3-0.1c-0.2,0-0.4,0.1-0.5,0.2c-0.1,0.1-0.2,0.3-0.2,0.5
				c0,0.2,0,0.3,0.1,0.4c0.1,0.1,0.2,0.2,0.3,0.3c0.1,0.1,0.3,0.2,0.4,0.3c0.1,0.1,0.3,0.3,0.3,0.4c0.1,0.2,0.1,0.4,0.1,0.7
				c0,0.3,0,0.5-0.1,0.7c-0.1,0.2-0.2,0.3-0.3,0.4c-0.1,0.1-0.3,0.2-0.4,0.3c-0.1,0.1-0.3,0.2-0.3,0.3c-0.1,0.1-0.1,0.3-0.1,0.4
				C15.5,17.3,15.6,17.4,15.8,17.6z M5.2,17.8C5.4,17.9,5.5,18,5.7,18h3l3.9,3.9c0.1,0.1,0.3,0.2,0.5,0.2c0.2,0,0.4-0.1,0.5-0.2
				c0.1-0.1,0.2-0.3,0.2-0.5V8.7c0-0.2-0.1-0.4-0.2-0.5c-0.1-0.1-0.3-0.2-0.5-0.2c-0.2,0-0.4,0.1-0.5,0.2L8.8,12h-3
				c-0.2,0-0.4,0.1-0.5,0.2C5.1,12.4,5,12.6,5,12.8v4.5C5,17.4,5.1,17.6,5.2,17.8z"/>  <path id="volume-med-SVGID_1_" d="M16.9,20.3c0.1,0.1,0.3,0.2,0.5,0.2c0.1,0,0.2,0,0.3-0.1c1.1-0.5,2-1.2,2.6-2.2c0.6-1,1-2.1,1-3.3
				c0-1.2-0.3-2.3-1-3.3c-0.7-1-1.5-1.7-2.6-2.2c-0.1,0-0.2-0.1-0.3-0.1c-0.2,0-0.4,0.1-0.5,0.2c-0.1,0.1-0.2,0.3-0.2,0.5
				c0,0.3,0.1,0.5,0.5,0.7c0.4,0.2,0.7,0.4,0.9,0.5c0.6,0.4,1,1,1.4,1.6c0.3,0.6,0.5,1.3,0.5,2s-0.2,1.4-0.5,2
				c-0.3,0.6-0.8,1.1-1.4,1.6c-0.1,0.1-0.4,0.3-0.9,0.5c-0.3,0.2-0.5,0.4-0.5,0.7C16.7,20,16.8,20.2,16.9,20.3z M15.8,17.6
				c0.1,0.1,0.3,0.2,0.5,0.2c0.1,0,0.2,0,0.3-0.1c0.5-0.2,1-0.6,1.3-1.1c0.3-0.5,0.5-1.1,0.5-1.6c0-0.6-0.2-1.1-0.5-1.6
				c-0.3-0.5-0.8-0.9-1.3-1.1c-0.1,0-0.2-0.1-0.3-0.1c-0.2,0-0.4,0.1-0.5,0.2c-0.1,0.1-0.2,0.3-0.2,0.5c0,0.2,0,0.3,0.1,0.4
				c0.1,0.1,0.2,0.2,0.3,0.3c0.1,0.1,0.3,0.2,0.4,0.3c0.1,0.1,0.3,0.3,0.3,0.4c0.1,0.2,0.1,0.4,0.1,0.7c0,0.3,0,0.5-0.1,0.7
				c-0.1,0.2-0.2,0.3-0.3,0.4c-0.1,0.1-0.3,0.2-0.4,0.3c-0.1,0.1-0.3,0.2-0.3,0.3c-0.1,0.1-0.1,0.3-0.1,0.4
				C15.5,17.3,15.6,17.4,15.8,17.6z M5.2,17.8C5.4,17.9,5.5,18,5.7,18h3l3.9,3.9c0.1,0.1,0.3,0.2,0.5,0.2c0.2,0,0.4-0.1,0.5-0.2
				c0.1-0.1,0.2-0.3,0.2-0.5V8.7c0-0.2-0.1-0.4-0.2-0.5c-0.1-0.1-0.3-0.2-0.5-0.2c-0.2,0-0.4,0.1-0.5,0.2L8.8,12h-3
				c-0.2,0-0.4,0.1-0.5,0.2C5.1,12.4,5,12.6,5,12.8v4.5C5,17.4,5.1,17.6,5.2,17.8z"/>  <path id="volume-mute-SVGID_1_" d="M5.2,17.8C5.4,17.9,5.5,18,5.7,18h3l3.9,3.9c0.1,0.1,0.3,0.2,0.5,0.2c0.2,0,0.4-0.1,0.5-0.2
					c0.1-0.1,0.2-0.3,0.2-0.5V8.7c0-0.2-0.1-0.4-0.2-0.5c-0.1-0.1-0.3-0.2-0.5-0.2c-0.2,0-0.4,0.1-0.5,0.2L8.8,12h-3
					c-0.2,0-0.4,0.1-0.5,0.2C5.1,12.4,5,12.6,5,12.8v4.5C5,17.4,5.1,17.6,5.2,17.8z"/> </defs><symbol viewBox="0 0 21.3 13" id="shape-close"><title>close</title> <path d="M20.7,10.7l-7.5-4.2l7.5-4.2C21.2,2,21.4,1.4,21.1,1l-0.2-0.4C20.6,0,20-0.1,19.5,0.1l-8.9,4.9L1.7,0.1
	C1.2-0.1,0.6,0,0.4,0.5L0.1,1C-0.1,1.4,0,2,0.5,2.3l7.5,4.2l-7.5,4.2C0,10.9-0.1,11.6,0.1,12l0.2,0.4c0.3,0.5,0.9,0.7,1.4,0.4
	l8.9-4.9l8.9,4.9c0.5,0.3,1.1,0.1,1.4-0.4l0.2-0.4C21.4,11.6,21.2,10.9,20.7,10.7z"/> </symbol><symbol viewBox="0 0 33.8 9.4" id="shape-etc"><title>etc</title> <g> <path d="M17,2c1.5,0,2.7,1.2,2.7,2.7S18.5,7.4,17,7.4s-2.7-1.2-2.7-2.7S15.5,2,17,2 M17,0c-2.6,0-4.7,2.1-4.7,4.7s2.1,4.7,4.7,4.7
		s4.7-2.1,4.7-4.7S19.6,0,17,0L17,0z"/> <path d="M29.1,2c1.5,0,2.7,1.2,2.7,2.7s-1.2,2.7-2.7,2.7s-2.7-1.2-2.7-2.7S27.6,2,29.1,2 M29.1,0c-2.6,0-4.7,2.1-4.7,4.7
		s2.1,4.7,4.7,4.7s4.7-2.1,4.7-4.7S31.7,0,29.1,0L29.1,0z"/> <path d="M4.7,2c1.5,0,2.7,1.2,2.7,2.7S6.2,7.4,4.7,7.4S2,6.2,2,4.7S3.2,2,4.7,2 M4.7,0C2.1,0,0,2.1,0,4.7s2.1,4.7,4.7,4.7
		s4.7-2.1,4.7-4.7S7.3,0,4.7,0L4.7,0z"/> </g> </symbol><symbol viewBox="0 0 30 30" id="shape-explore"><title>explore</title> <g> <circle cx="15" cy="15" r="4.8"/> <path d="M15,0C6.7,0,0,6.7,0,15c0,8.3,6.7,15,15,15c8.3,0,15-6.7,15-15C30,6.7,23.3,0,15,0z M2,15c0-0.3,0-0.5,0-0.7
		C3.5,12,7.7,6.9,15,6.9c7.1,0,11.4,4.9,13,7.2c0,0.3,0,0.6,0,0.9c0,0.3,0,0.6,0,1c-1.6,2.4-5.8,7.4-13,7.4c-7.3,0-11.5-5.3-13-7.6
		C2,15.5,2,15.3,2,15z M15,2c6.2,0,11.3,4.3,12.7,10.1C25.4,9.5,21.3,5.9,15,5.9c-6.4,0-10.5,3.7-12.7,6.4C3.6,6.4,8.8,2,15,2z
		 M15,28C8.8,28,3.6,23.7,2.3,17.9c2.2,2.7,6.3,6.5,12.7,6.5c6.2,0,10.4-3.6,12.6-6.3C26.3,23.7,21.1,28,15,28z"/> </g> </symbol><symbol viewBox="0 0 30 30" id="shape-feed"><title>feed</title> <path d="M15,0C6.7,0,0,6.7,0,15c0,8.3,6.7,15,15,15s15-6.7,15-15C30,6.7,23.3,0,15,0z M15,2c6.8,0,12.5,5.3,13,12.1h-8.2
	c-0.5,0-1,0.3-1.1,0.8l-1.5,5.2L14.3,5.3c-0.1-0.5-0.5-0.9-1.1-0.9c-0.5,0-1,0.3-1.2,0.8l-2.6,8.9H2C2.5,7.3,8.2,2,15,2z M15,28
	C8.3,28,2.7,22.9,2.1,16.3h8.2c0.5,0,1-0.3,1.1-0.8l1.5-5.2l2.8,14.8c0.1,0.5,0.5,0.9,1.1,0.9c0,0,0,0,0.1,0c0.5,0,1-0.3,1.1-0.8
	l2.6-8.9h7.3C27.3,22.9,21.7,28,15,28z"/> </symbol><symbol viewBox="0 0 16 16" id="shape-grid"><title>grid</title> <g> <g> <g>  <use xlink:href="#grid-SVGID_1_" overflow="visible" fill-rule="evenodd" clip-rule="evenodd"/> <clipPath id="grid-SVGID_2_"> <use xlink:href="#grid-SVGID_1_" overflow="visible"/> </clipPath> <rect x="-5" y="-5" clip-path="url(#grid-SVGID_2_)" width="14.4" height="14.4"/> </g> </g> <g> <g> <defs> <path id="grid-SVGID_3_" d="M6.8,0c-0.6,0-1,0.5-1,1v2.4c0,0.6,0.5,1,1,1h2.4c0.6,0,1-0.5,1-1V1c0-0.6-0.5-1-1-1H6.8z"/> </defs> <use xlink:href="#grid-SVGID_3_" overflow="visible" fill-rule="evenodd" clip-rule="evenodd"/> <clipPath id="grid-SVGID_4_"> <use xlink:href="#grid-SVGID_3_" overflow="visible"/> </clipPath> <rect x="0.8" y="-5" clip-path="url(#grid-SVGID_4_)" width="14.4" height="14.4"/> </g> </g> <g> <g> <defs> <path id="grid-SVGID_5_" d="M12.6,0c-0.6,0-1,0.5-1,1v2.4c0,0.6,0.5,1,1,1H15c0.6,0,1-0.5,1-1V1c0-0.6-0.5-1-1-1H12.6z"/> </defs> <use xlink:href="#grid-SVGID_5_" overflow="visible" fill-rule="evenodd" clip-rule="evenodd"/> <clipPath id="grid-SVGID_6_"> <use xlink:href="#grid-SVGID_5_" overflow="visible"/> </clipPath> <rect x="6.6" y="-5" clip-path="url(#grid-SVGID_6_)" width="14.4" height="14.4"/> </g> </g> <g> <g> <defs> <path id="grid-SVGID_7_" d="M1,5.8c-0.6,0-1,0.5-1,1v2.4c0,0.6,0.5,1,1,1h2.4c0.6,0,1-0.5,1-1V6.8c0-0.6-0.5-1-1-1H1z"/> </defs> <use xlink:href="#grid-SVGID_7_" overflow="visible" fill-rule="evenodd" clip-rule="evenodd"/> <clipPath id="grid-SVGID_8_"> <use xlink:href="#grid-SVGID_7_" overflow="visible"/> </clipPath> <rect x="-5" y="0.8" clip-path="url(#grid-SVGID_8_)" width="14.4" height="14.4"/> </g> </g> <g> <g> <defs> <path id="grid-SVGID_9_" d="M6.8,5.8c-0.6,0-1,0.5-1,1v2.4c0,0.6,0.5,1,1,1h2.4c0.6,0,1-0.5,1-1V6.8c0-0.6-0.5-1-1-1H6.8z"/> </defs> <use xlink:href="#grid-SVGID_9_" overflow="visible" fill-rule="evenodd" clip-rule="evenodd"/> <clipPath id="grid-SVGID_10_"> <use xlink:href="#grid-SVGID_9_" overflow="visible"/> </clipPath> <rect x="0.8" y="0.8" clip-path="url(#grid-SVGID_10_)" width="14.4" height="14.4"/> </g> </g> <g> <g> <defs> <path id="grid-SVGID_11_" d="M12.6,5.8c-0.6,0-1,0.5-1,1v2.4c0,0.6,0.5,1,1,1H15c0.6,0,1-0.5,1-1V6.8c0-0.6-0.5-1-1-1H12.6z"/> </defs> <use xlink:href="#grid-SVGID_11_" overflow="visible" fill-rule="evenodd" clip-rule="evenodd"/> <clipPath id="grid-SVGID_12_"> <use xlink:href="#grid-SVGID_11_" overflow="visible"/> </clipPath> <rect x="6.6" y="0.8" clip-path="url(#grid-SVGID_12_)" width="14.4" height="14.4"/> </g> </g> <g> <g> <defs> <path id="grid-SVGID_13_" d="M1,11.6c-0.6,0-1,0.5-1,1V15c0,0.6,0.5,1,1,1h2.4c0.6,0,1-0.5,1-1v-2.4c0-0.6-0.5-1-1-1H1z"/> </defs> <use xlink:href="#grid-SVGID_13_" overflow="visible" fill-rule="evenodd" clip-rule="evenodd"/> <clipPath id="grid-SVGID_14_"> <use xlink:href="#grid-SVGID_13_" overflow="visible"/> </clipPath> <rect x="-5" y="6.6" clip-path="url(#grid-SVGID_14_)" width="14.4" height="14.4"/> </g> </g> <g> <g> <defs> <path id="grid-SVGID_15_" d="M6.8,11.6c-0.6,0-1,0.5-1,1V15c0,0.6,0.5,1,1,1h2.4c0.6,0,1-0.5,1-1v-2.4c0-0.6-0.5-1-1-1H6.8z"/> </defs> <use xlink:href="#grid-SVGID_15_" overflow="visible" fill-rule="evenodd" clip-rule="evenodd"/> <clipPath id="grid-SVGID_16_"> <use xlink:href="#grid-SVGID_15_" overflow="visible"/> </clipPath> <rect x="0.8" y="6.6" clip-path="url(#grid-SVGID_16_)" width="14.4" height="14.4"/> </g> </g> <g> <g> <defs> <path id="grid-SVGID_17_" d="M12.6,11.6c-0.6,0-1,0.5-1,1V15c0,0.6,0.5,1,1,1H15c0.6,0,1-0.5,1-1v-2.4c0-0.6-0.5-1-1-1H12.6z"/> </defs> <use xlink:href="#grid-SVGID_17_" overflow="visible" fill-rule="evenodd" clip-rule="evenodd"/> <clipPath id="grid-SVGID_18_"> <use xlink:href="#grid-SVGID_17_" overflow="visible"/> </clipPath> <rect x="6.6" y="6.6" clip-path="url(#grid-SVGID_18_)" width="14.4" height="14.4"/> </g> </g> </g> </symbol><symbol viewBox="0 0 30 30" id="shape-library"><title>library</title> <path d="M17.1,5.5H17h-1.5H15v13.1c-0.8-0.3-1.7-0.4-2.6-0.2c-2.1,0.4-3.6,2.2-3.3,3.8c0.3,1.7,2.4,2.7,4.5,2.3
	c1.8-0.4,3.1-1.7,3.3-3.1h0V10.8c2.8,0.4,3.2,2.7,2.9,3.6c-0.1,0.4,0.1,0.6,0.5,0C23.5,10,16.8,8.4,17.1,5.5z"/> <path d="M15,2c7.2,0,13,5.8,13,13s-5.8,13-13,13S2,22.2,2,15S7.8,2,15,2 M15,0C6.7,0,0,6.7,0,15s6.7,15,15,15s15-6.7,15-15
	S23.3,0,15,0L15,0z"/> </symbol><symbol viewBox="0 0 19.1 16.1" id="shape-list"><title>list</title> <g> <g> <g>  <use xlink:href="#list-SVGID_1_" overflow="visible" fill-rule="evenodd" clip-rule="evenodd"/> <clipPath id="list-SVGID_2_"> <use xlink:href="#list-SVGID_1_" overflow="visible"/> </clipPath> <rect x="-5" y="-5" clip-path="url(#list-SVGID_2_)" width="13.8" height="13.6"/> </g> </g> <g> <g> <defs> <rect id="list-SVGID_3_" x="6.1" y="0.5" width="13" height="2.5"/> </defs> <use xlink:href="#list-SVGID_3_" overflow="visible" fill-rule="evenodd" clip-rule="evenodd"/> <clipPath id="list-SVGID_4_"> <use xlink:href="#list-SVGID_3_" overflow="visible"/> </clipPath> <rect x="1.8" y="-4.5" clip-path="url(#list-SVGID_4_)" width="21.6" height="12.5"/> </g> </g> <g> <g> <defs> <ellipse id="list-SVGID_5_" cx="1.9" cy="8" rx="1.9" ry="1.8"/> </defs> <use xlink:href="#list-SVGID_5_" overflow="visible" fill-rule="evenodd" clip-rule="evenodd"/> <clipPath id="list-SVGID_6_"> <use xlink:href="#list-SVGID_5_" overflow="visible"/> </clipPath> <rect x="-5" y="1.2" clip-path="url(#list-SVGID_6_)" width="13.8" height="13.6"/> </g> </g> <g> <g> <defs> <rect id="list-SVGID_7_" x="6.1" y="6.7" width="13" height="2.5"/> </defs> <use xlink:href="#list-SVGID_7_" overflow="visible" fill-rule="evenodd" clip-rule="evenodd"/> <clipPath id="list-SVGID_8_"> <use xlink:href="#list-SVGID_7_" overflow="visible"/> </clipPath> <rect x="1.8" y="1.7" clip-path="url(#list-SVGID_8_)" width="21.6" height="12.5"/> </g> </g> <g> <g> <defs> <ellipse id="list-SVGID_9_" cx="1.9" cy="14.3" rx="1.9" ry="1.8"/> </defs> <use xlink:href="#list-SVGID_9_" overflow="visible" fill-rule="evenodd" clip-rule="evenodd"/> <clipPath id="list-SVGID_10_"> <use xlink:href="#list-SVGID_9_" overflow="visible"/> </clipPath> <rect x="-5" y="7.5" clip-path="url(#list-SVGID_10_)" width="13.8" height="13.6"/> </g> </g> <g> <g> <defs> <rect id="list-SVGID_11_" x="6.1" y="13" width="13" height="2.5"/> </defs> <use xlink:href="#list-SVGID_11_" overflow="visible" fill-rule="evenodd" clip-rule="evenodd"/> <clipPath id="list-SVGID_12_"> <use xlink:href="#list-SVGID_11_" overflow="visible"/> </clipPath> <rect x="1.8" y="8" clip-path="url(#list-SVGID_12_)" width="21.6" height="12.5"/> </g> </g> </g> </symbol><symbol viewBox="93.4 9.5 224.1 23" id="shape-logo"><title>logo</title><desc>Created with Sketch.</desc>   <g id="logo-Page-1" sketch:type="MSPage"> <g id="logo-editors_picks" transform="translate(-17.000000, -14.000000)" sketch:type="MSArtboardGroup"> <g id="logo-header" transform="translate(1.000000, 0.000000)" sketch:type="MSLayerGroup"> <g id="logo-logo" transform="translate(16.000000, 11.000000)"> <g id="logo-speaker-2" transform="translate(0.438053, 3.500000)" sketch:type="MSShapeGroup"> <path id="logo-Shape" d="M110.5,32H98.6c-3.1,0-5.6-2.5-5.6-5.6V14.6c0-3.1,2.5-5.6,5.6-5.6h11.9c3.1,0,5.6,2.5,5.6,5.6v11.8
						C116.1,29.5,113.6,32,110.5,32L110.5,32z M98.6,11c-2,0-3.6,1.6-3.6,3.6v11.8c0,2,1.6,3.6,3.6,3.6h11.9c2,0,3.6-1.6,3.6-3.6
						V14.6c0-2-1.6-3.6-3.6-3.6H98.6L98.6,11z"/> <path id="logo-Shape_1_" d="M104.6,29c-4.6,0-8.4-3.8-8.4-8.4s3.8-8.4,8.4-8.4s8.4,3.8,8.4,8.4S109.3,29,104.6,29L104.6,29z
						 M104.6,13c-4.2,0-7.6,3.4-7.6,7.6s3.4,7.6,7.6,7.6c4.2,0,7.6-3.4,7.6-7.6S108.8,13,104.6,13L104.6,13z"/> <path id="logo-Shape_2_" d="M104.6,27.7c-3.9,0-7.2-3.2-7.2-7.1s3.2-7.1,7.2-7.1c3.9,0,7.2,3.2,7.2,7.1S108.6,27.7,104.6,27.7
						L104.6,27.7z M104.6,14.9c-3.1,0-5.7,2.5-5.7,5.6s2.5,5.6,5.7,5.6s5.7-2.5,5.7-5.6S107.8,14.9,104.6,14.9L104.6,14.9z"/> <path id="logo-Shape_3_" d="M104.6,22.8c1.3,0,2.3-1,2.3-2.3s-1-2.3-2.3-2.3c-1.3,0-2.3,1-2.3,2.3S103.3,22.8,104.6,22.8L104.6,22.8
						z"/> <path id="logo-Shape_4_" d="M97.5,28.5c0.4,0,0.6-0.3,0.6-0.6c0-0.3-0.3-0.6-0.6-0.6s-0.6,0.3-0.6,0.6
						C96.8,28.2,97.1,28.5,97.5,28.5L97.5,28.5z"/> <path id="logo-Shape_5_" d="M97.5,14.1c0.4,0,0.6-0.3,0.6-0.6s-0.3-0.6-0.6-0.6s-0.6,0.3-0.6,0.6C96.8,13.8,97.1,14.1,97.5,14.1
						L97.5,14.1z"/> <path id="logo-Shape_6_" d="M111.8,14.1c0.4,0,0.6-0.3,0.6-0.6s-0.3-0.6-0.6-0.6c-0.4,0-0.6,0.3-0.6,0.6
						C111.1,13.8,111.4,14.1,111.8,14.1L111.8,14.1z"/> <path id="logo-Shape_7_" d="M111.8,28.5c0.4,0,0.6-0.3,0.6-0.6c0-0.3-0.3-0.6-0.6-0.6c-0.4,0-0.6,0.3-0.6,0.6
						C111.1,28.2,111.4,28.5,111.8,28.5L111.8,28.5z"/> </g> <g enable-background="new    "> <path d="M130,17.2c-0.9,0-1.6,0.2-2.2,0.5c-0.6,0.4-0.9,0.9-0.9,1.7c0,0.7,0.3,1.3,0.9,1.7c0.6,0.4,1.8,0.8,3.7,1.3
						c1.9,0.5,3.3,1.1,4.2,1.9c0.9,0.8,1.4,2,1.4,3.6s-0.6,2.9-1.8,3.9c-1.2,1-2.8,1.5-4.7,1.5c-2.8,0-5.4-1-7.6-2.9L125,28
						c1.8,1.6,3.7,2.4,5.7,2.4c1,0,1.8-0.2,2.4-0.6c0.6-0.4,0.9-1,0.9-1.7c0-0.7-0.3-1.2-0.8-1.6c-0.5-0.4-1.5-0.7-2.8-1.1
						c-1.3-0.3-2.3-0.6-3-0.9c-0.7-0.3-1.3-0.6-1.8-1.1c-1.1-0.8-1.6-2.1-1.6-3.7c0-1.7,0.6-3,1.8-3.9s2.7-1.4,4.5-1.4
						c1.2,0,2.3,0.2,3.5,0.6c1.1,0.4,2.1,0.9,3,1.6l-1.6,2.3c-0.5-0.5-1.3-0.9-2.2-1.2C131.8,17.4,130.9,17.2,130,17.2z"/> <path d="M140.9,33V14.8h3.1v7.9h9v-7.9h3.1V33H153v-7.4h-9V33H140.9z"/> <path d="M176.3,30.5c-1.8,1.8-4.1,2.7-6.8,2.7s-5-0.9-6.8-2.7c-1.8-1.8-2.8-4-2.8-6.7s0.9-4.9,2.8-6.7c1.8-1.8,4.1-2.7,6.8-2.7
						s5,0.9,6.8,2.7c1.8,1.8,2.8,4,2.8,6.7S178.2,28.7,176.3,30.5z M174.1,19.1c-1.2-1.3-2.8-1.9-4.6-1.9s-3.3,0.6-4.6,1.9
						c-1.2,1.3-1.9,2.8-1.9,4.7s0.6,3.4,1.9,4.7c1.2,1.3,2.8,1.9,4.6,1.9s3.3-0.6,4.6-1.9c1.2-1.3,1.9-2.8,1.9-4.7
						S175.3,20.4,174.1,19.1z"/> <path d="M188.4,27.9l4.1-13.1h2.8l4.1,13.1l4.6-13.1h3.3L200.8,33h-3L194,20.5h-0.2L189.9,33h-3l-6.3-18.2h3.3L188.4,27.9z"/> </g> <g enable-background="new    "> <path d="M214,18.5c-0.4,0.3-0.6,0.7-0.6,1.3c0,0.5,0.2,0.9,0.7,1.3c0.5,0.3,1.6,0.7,3.3,1.1c1.7,0.4,3.1,1.1,4,1.9
						c1,0.8,1.4,2.1,1.4,3.7c0,1.6-0.6,3-1.8,4c-1.2,1-2.8,1.5-4.8,1.5c-2.9,0-5.5-1.1-7.8-3.2l2.4-3c2,1.7,3.8,2.6,5.4,2.6
						c0.7,0,1.3-0.2,1.8-0.5c0.4-0.3,0.6-0.8,0.6-1.3s-0.2-1-0.7-1.3c-0.5-0.3-1.3-0.6-2.7-1c-2.1-0.5-3.7-1.2-4.6-2
						c-1-0.8-1.5-2.1-1.5-3.8c0-1.7,0.6-3.1,1.9-4c1.2-0.9,2.8-1.4,4.6-1.4c1.2,0,2.4,0.2,3.6,0.6s2.3,1,3.2,1.8l-2.1,3
						c-1.6-1.2-3.2-1.8-4.9-1.8C214.9,18,214.4,18.1,214,18.5z"/> <path d="M233.9,18.3V33h-4.1V18.3h-5.1v-3.5H239v3.5H233.9z"/> <path d="M256.7,20.9c0,2.9-1.2,4.8-3.5,5.6l4.6,6.5h-5l-4-5.8H246V33H242V14.8h6.9c2.8,0,4.8,0.5,6,1.4S256.7,18.7,256.7,20.9z
						 M251.8,23c0.5-0.5,0.8-1.2,0.8-2.1s-0.3-1.7-0.8-2c-0.5-0.4-1.4-0.5-2.7-0.5h-3v5.4h3C250.4,23.7,251.3,23.5,251.8,23z"/> <path d="M274,14.8v3.6h-9v3.7h8.1v3.5h-8.1v3.8h9.3V33h-13.4V14.8H274z"/> <path d="M290.8,33l-1.7-3.9h-7.6l-1.7,3.9h-4.3l7.9-18.2h3.9l7.9,18.2H290.8z M285.3,20.2l-2.3,5.3h4.5L285.3,20.2z"/> <path d="M313.5,21.6l-4.9,9.9h-2.4l-4.9-9.9V33h-4.1V14.8h5.5l4.7,10l4.7-10h5.5V33h-4.1V21.6z"/> </g> </g> </g> </g> </g> </symbol><symbol viewBox="0 0 40 40" id="shape-pause"><title>pause</title>  <path d="M16.7,31.8h-2.5c-0.6,0-1-0.4-1-1V9.2c0-0.5,0.4-1,1-1h2.5c0.5,0,1,0.5,1,1v21.5C17.7,31.3,17.2,31.8,16.7,31.8z"/> <path d="M25.8,31.8h-2.5c-0.6,0-1-0.4-1-1V9.2c0-0.5,0.4-1,1-1h2.5c0.5,0,1,0.5,1,1v21.5C26.8,31.3,26.4,31.8,25.8,31.8z"/> <path d="M20,3.5c9.1,0,16.5,7.4,16.5,16.5S29.1,36.5,20,36.5S3.5,29.1,3.5,20S10.9,3.5,20,3.5 M20,0C9,0,0,9,0,20s9,20,20,20
	s20-9,20-20S31,0,20,0L20,0z"/> </symbol><symbol viewBox="0 0 40 40" id="shape-play"><title>play</title> <g> <path d="M14.7,10.9c0-1.1,0.7-1.5,1.6-0.9l13.4,9.3c0.9,0.6,0.9,1.7,0,2.3L16.4,31c-0.9,0.6-1.6,0.2-1.6-0.9L14.7,10.9L14.7,10.9z"/> </g> <path d="M20,3.5c9.1,0,16.5,7.4,16.5,16.5S29.1,36.5,20,36.5S3.5,29.1,3.5,20S10.9,3.5,20,3.5 M20,0C9,0,0,9,0,20s9,20,20,20
	s20-9,20-20S31,0,20,0L20,0z"/> </symbol><symbol viewBox="0 0 23 20.9" id="shape-playlist"><title>playlist</title> <g> <g> <g>  <use xlink:href="#playlist-SVGID_1_" overflow="visible" fill-rule="evenodd" clip-rule="evenodd"/> <clipPath id="playlist-SVGID_2_"> <use xlink:href="#playlist-SVGID_1_" overflow="visible"/> </clipPath> </g> </g> <g> <g> <defs> <polygon id="playlist-SVGID_3_" points="13,9.8 0,9.8 0,11.6 13,11.6 13,9.8 				"/> </defs> <use xlink:href="#playlist-SVGID_3_" overflow="visible" fill-rule="evenodd" clip-rule="evenodd"/> <clipPath id="playlist-SVGID_4_"> <use xlink:href="#playlist-SVGID_3_" overflow="visible"/> </clipPath> <rect x="-5" y="4.8" clip-path="url(#playlist-SVGID_4_)" width="23" height="11.8"/> </g> </g> <g> <g> <defs> <polygon id="playlist-SVGID_5_" points="13,6.5 0,6.5 0,8.3 13,8.3 13,6.5 				"/> </defs> <use xlink:href="#playlist-SVGID_5_" overflow="visible" fill-rule="evenodd" clip-rule="evenodd"/> <clipPath id="playlist-SVGID_6_"> <use xlink:href="#playlist-SVGID_5_" overflow="visible"/> </clipPath> <rect x="-5" y="1.5" clip-path="url(#playlist-SVGID_6_)" width="23" height="11.8"/> </g> </g> <g> <g> <defs> <polygon id="playlist-SVGID_7_" points="13,3.2 0,3.2 0,5 13,5 13,3.2 				"/> </defs> <use xlink:href="#playlist-SVGID_7_" overflow="visible" fill-rule="evenodd" clip-rule="evenodd"/> <clipPath id="playlist-SVGID_8_"> <use xlink:href="#playlist-SVGID_7_" overflow="visible"/> </clipPath> </g> </g> </g> </symbol><symbol viewBox="0 0 30 30" id="shape-profile"><title>profile</title> <g> <g> <circle cx="7.4" cy="11.3" r="1.2"/> <circle cx="22.3" cy="10.2" r="1.2"/> <path d="M23.2,14.1c-0.2-3.2-16-2.3-15.8,0.8c0.2,3.1,3.8,5.7,8.2,5.4S23.4,17.3,23.2,14.1z M13,19.4c-0.1-0.8,1-1.5,2.4-1.6
			c1.4-0.1,2.5,0.4,2.5,1.2C18,19.9,13.1,20.2,13,19.4z M22.3,14.3c-0.1,0.4-0.4,0.7-0.6,0.7l-0.4-0.1l0.1,0c0.1,0,0.1,0.3,0,0.6
			c-0.1,0.3-0.3,0.5-0.4,0.5L20.9,16c0,0.1,0,0.3,0,0.4c-0.1,0.2-0.2,0.4-0.3,0.4l-0.8-0.3c-0.1,0-0.1-0.2,0-0.5
			c0.1-0.2,0.2-0.4,0.3-0.4c-0.1-0.1,0-0.3,0-0.6c0.1-0.2,0.2-0.4,0.3-0.5l-0.4-0.1c-0.1,0-0.2-0.1-0.2-0.2
			c-0.1,0.1-0.2,0.2-0.3,0.2l-1.8-0.2c-0.1,0-0.2-0.1-0.2-0.2c-0.1,0.2-0.2,0.3-0.3,0.3l-1.8,0c-0.1,0-0.2-0.1-0.3-0.2
			c-0.1,0.1-0.1,0.2-0.2,0.2l-1.7,0.1c-0.1,0-0.2-0.1-0.3-0.2c0,0.1-0.1,0.2-0.2,0.3L11,15.1c-0.1,0-0.2,0-0.3-0.1
			c0,0.2-0.1,0.3-0.2,0.3l-0.1,0c0.1,0.1,0.2,0.2,0.3,0.4c0.1,0.2,0.1,0.4,0.1,0.5l0.1,0c0.1,0,0.2,0.1,0.3,0.4
			c0.1,0.2,0.1,0.5,0,0.5l-0.8,0.3c-0.1,0-0.2-0.1-0.3-0.4C10,16.9,10,16.7,10,16.6l-0.3,0.1c-0.1,0-0.3-0.2-0.4-0.5
			c-0.1-0.2-0.1-0.4-0.1-0.5l-0.3,0.1c-0.2,0.1-0.5-0.2-0.6-0.6c-0.2-0.4-0.1-0.8,0.1-0.9l1.7-0.6c0.1,0,0.3,0,0.4,0.2
			c0-0.2,0.1-0.4,0.2-0.5l1.7-0.4c0.1,0,0.3,0.1,0.4,0.4c0-0.3,0.1-0.5,0.3-0.5l1.7-0.1c0.1,0,0.2,0.1,0.3,0.3
			c0.1-0.2,0.2-0.3,0.3-0.3l1.8,0c0.1,0,0.2,0.1,0.3,0.3c0.1-0.2,0.2-0.4,0.4-0.4l1.8,0.2c0.1,0,0.2,0.2,0.3,0.4
			c0.1-0.2,0.3-0.4,0.4-0.3l1.8,0.5C22.4,13.5,22.5,13.9,22.3,14.3z"/> </g> <path d="M15,2c7.2,0,13,5.8,13,13s-5.8,13-13,13C7.8,28,2,22.2,2,15S7.8,2,15,2 M15,0C6.7,0,0,6.7,0,15s6.7,15,15,15
		c8.3,0,15-6.7,15-15S23.3,0,15,0L15,0z"/> </g> </symbol><symbol viewBox="0 0 22.7 9.9" id="shape-queue"><title>queue</title> <g> <g> <g>  <use xlink:href="#queue-SVGID_1_" overflow="visible" fill-rule="evenodd" clip-rule="evenodd"/> <clipPath id="queue-SVGID_2_"> <use xlink:href="#queue-SVGID_1_" overflow="visible"/> </clipPath> <rect x="0.4" y="-3.4" clip-path="url(#queue-SVGID_2_)" width="25.8" height="16.8"/> </g> </g> <g> <g> <defs> <ellipse id="queue-SVGID_3_" cx="1.1" cy="1" rx="1.1" ry="1"/> </defs> <use xlink:href="#queue-SVGID_3_" overflow="visible" fill-rule="evenodd" clip-rule="evenodd"/> <clipPath id="queue-SVGID_4_"> <use xlink:href="#queue-SVGID_3_" overflow="visible"/> </clipPath> <rect x="-3.5" y="-3.5" clip-path="url(#queue-SVGID_4_)" width="9.2" height="9"/> </g> </g> <g> <g> <defs> <ellipse id="queue-SVGID_5_" cx="1.1" cy="4.9" rx="1.1" ry="1"/> </defs> <use xlink:href="#queue-SVGID_5_" overflow="visible" fill-rule="evenodd" clip-rule="evenodd"/> <clipPath id="queue-SVGID_6_"> <use xlink:href="#queue-SVGID_5_" overflow="visible"/> </clipPath> <rect x="-3.5" y="0.4" clip-path="url(#queue-SVGID_6_)" width="9.2" height="9"/> </g> </g> <g> <g> <defs> <ellipse id="queue-SVGID_7_" cx="1.1" cy="8.8" rx="1.1" ry="1"/> </defs> <use xlink:href="#queue-SVGID_7_" overflow="visible" fill-rule="evenodd" clip-rule="evenodd"/> <clipPath id="queue-SVGID_8_"> <use xlink:href="#queue-SVGID_7_" overflow="visible"/> </clipPath> <rect x="-3.5" y="4.3" clip-path="url(#queue-SVGID_8_)" width="9.2" height="9"/> </g> </g> </g> </symbol><symbol viewBox="0 0 30 30" id="shape-showstreamsvg"><title>showstreamsvg</title> <path d="M15,0C6.7,0,0,6.7,0,15c0,8.3,6.7,15,15,15s15-6.7,15-15C30,6.7,23.3,0,15,0z M15,2c6.8,0,12.5,5.3,13,12.1h-8.2
	c-0.5,0-1,0.3-1.1,0.8l-1.5,5.2L14.3,5.3c-0.1-0.5-0.5-0.9-1.1-0.9c-0.5,0-1,0.3-1.2,0.8l-2.6,8.9H2C2.5,7.3,8.2,2,15,2z M15,28
	C8.3,28,2.7,22.9,2.1,16.3h8.2c0.5,0,1-0.3,1.1-0.8l1.5-5.2l2.8,14.8c0.1,0.5,0.5,0.9,1.1,0.9c0,0,0,0,0.1,0c0.5,0,1-0.3,1.1-0.8
	l2.6-8.9h7.3C27.3,22.9,21.7,28,15,28z"/> </symbol><symbol viewBox="0 0 30 30" id="shape-speaker"><title>speaker</title> <path d="M15,2c7.2,0,13,5.8,13,13s-5.8,13-13,13S2,22.2,2,15S7.8,2,15,2 M15,0C6.7,0,0,6.7,0,15s6.7,15,15,15s15-6.7,15-15
	S23.3,0,15,0L15,0z"/> <path d="M15,10.3c2.6,0,4.7,2.1,4.7,4.7s-2.1,4.7-4.7,4.7s-4.7-2.1-4.7-4.7S12.4,10.3,15,10.3 M15,4.3C9.1,4.3,4.3,9.1,4.3,15
	S9.1,25.7,15,25.7S25.7,20.9,25.7,15S20.9,4.3,15,4.3L15,4.3z"/> </symbol><symbol viewBox="0 0 30 30" id="shape-volume-hi"><title>volume-hi</title> <g> <g>  <use xlink:href="#volume-hi-SVGID_1_" overflow="visible" fill-rule="evenodd" clip-rule="evenodd"/> <clipPath id="volume-hi-SVGID_2_"> <use xlink:href="#volume-hi-SVGID_1_" overflow="visible"/> </clipPath> <rect x="-33.8" y="-28.1" clip-path="url(#volume-hi-SVGID_2_)" width="28.7" height="25.9"/> </g> <path d="M15,2c7.2,0,13,5.8,13,13s-5.8,13-13,13S2,22.2,2,15S7.8,2,15,2 M15,0C6.7,0,0,6.7,0,15s6.7,15,15,15s15-6.7,15-15
		S23.3,0,15,0L15,0z"/> </g> </symbol><symbol viewBox="0 0 30 30" id="shape-volume-lo"><title>volume-lo</title> <g> <g>  <use xlink:href="#volume-lo-SVGID_1_" overflow="visible" fill-rule="evenodd" clip-rule="evenodd"/> <clipPath id="volume-lo-SVGID_2_"> <use xlink:href="#volume-lo-SVGID_1_" overflow="visible"/> </clipPath> <rect x="-33.8" y="-28.1" clip-path="url(#volume-lo-SVGID_2_)" width="28.7" height="25.9"/> </g> <path d="M15,2c7.2,0,13,5.8,13,13s-5.8,13-13,13S2,22.2,2,15S7.8,2,15,2 M15,0C6.7,0,0,6.7,0,15s6.7,15,15,15s15-6.7,15-15
		S23.3,0,15,0L15,0z"/> </g> </symbol><symbol viewBox="0 0 30 30" id="shape-volume-med"><title>volume-med</title> <g> <g>  <use xlink:href="#volume-med-SVGID_1_" overflow="visible" fill-rule="evenodd" clip-rule="evenodd"/> <clipPath id="volume-med-SVGID_2_"> <use xlink:href="#volume-med-SVGID_1_" overflow="visible"/> </clipPath> <rect x="-33.8" y="-28.1" clip-path="url(#volume-med-SVGID_2_)" width="28.7" height="25.9"/> </g> <path d="M15,2c7.2,0,13,5.8,13,13s-5.8,13-13,13S2,22.2,2,15S7.8,2,15,2 M15,0C6.7,0,0,6.7,0,15s6.7,15,15,15s15-6.7,15-15
		S23.3,0,15,0L15,0z"/> </g> </symbol><symbol viewBox="0 0 30 30" id="shape-volume-mute"><title>volume-mute</title> <g> <g> <g>  <use xlink:href="#volume-mute-SVGID_1_" overflow="visible" fill-rule="evenodd" clip-rule="evenodd"/> <clipPath id="volume-mute-SVGID_2_"> <use xlink:href="#volume-mute-SVGID_1_" overflow="visible"/> </clipPath> <rect x="-33.8" y="-28.1" clip-path="url(#volume-mute-SVGID_2_)" width="28.7" height="25.9"/> </g> <path d="M15,2c7.2,0,13,5.8,13,13s-5.8,13-13,13S2,22.2,2,15S7.8,2,15,2 M15,0C6.7,0,0,6.7,0,15s6.7,15,15,15s15-6.7,15-15
			S23.3,0,15,0L15,0z"/> </g> <g> <path d="M18.8,11.3l1.8,2.5l1.9-2.5h2.1l-3,3.7l3.1,3.8h-2.2l-2-2.5l-2,2.5h-2.1l3-3.8l-2.8-3.7H18.8z"/> </g> </g> </symbol></svg>